<mxfile host="Electron" modified="2024-05-07T00:05:07.977Z" agent="Mozilla/5.0 (X11; Linux x86_64) AppleWebKit/537.36 (KHTML, like Gecko) draw.io/24.2.5 Chrome/120.0.6099.109 Electron/28.1.0 Safari/537.36" etag="DVzp4E-HrGgiybr-UlJn" version="24.2.5" type="device">
  <diagram name="Page-1" id="pS7veTflRMblAJfnToe0">
    <mxGraphModel dx="1434" dy="838" grid="1" gridSize="10" guides="1" tooltips="1" connect="1" arrows="1" fold="1" page="1" pageScale="1" pageWidth="1200" pageHeight="900" math="0" shadow="0">
      <root>
        <mxCell id="0" />
        <mxCell id="1" parent="0" />
        <mxCell id="foUp236TacWjybDignUc-134" value="Guest" style="shape=table;startSize=25;container=1;collapsible=0;childLayout=tableLayout;fixedRows=1;rowLines=1;fontStyle=1;align=center;resizeLast=1;" vertex="1" parent="1">
          <mxGeometry x="20" y="249" width="252" height="151" as="geometry" />
        </mxCell>
        <mxCell id="foUp236TacWjybDignUc-135" style="shape=tableRow;horizontal=0;startSize=0;swimlaneHead=0;swimlaneBody=0;fillColor=none;collapsible=0;dropTarget=0;points=[[0,0.5],[1,0.5]];portConstraint=eastwest;top=0;left=0;right=0;bottom=0;" vertex="1" parent="foUp236TacWjybDignUc-134">
          <mxGeometry y="25" width="252" height="21" as="geometry" />
        </mxCell>
        <mxCell id="foUp236TacWjybDignUc-136" value="string" style="shape=partialRectangle;connectable=0;fillColor=none;top=0;left=0;bottom=0;right=0;align=left;spacingLeft=2;overflow=hidden;fontSize=11;" vertex="1" parent="foUp236TacWjybDignUc-135">
          <mxGeometry width="36" height="21" as="geometry">
            <mxRectangle width="36" height="21" as="alternateBounds" />
          </mxGeometry>
        </mxCell>
        <mxCell id="foUp236TacWjybDignUc-137" value="Guest_ID" style="shape=partialRectangle;connectable=0;fillColor=none;top=0;left=0;bottom=0;right=0;align=left;spacingLeft=2;overflow=hidden;fontSize=11;" vertex="1" parent="foUp236TacWjybDignUc-135">
          <mxGeometry x="36" width="144" height="21" as="geometry">
            <mxRectangle width="144" height="21" as="alternateBounds" />
          </mxGeometry>
        </mxCell>
        <mxCell id="foUp236TacWjybDignUc-138" value="Primary Key" style="shape=partialRectangle;connectable=0;fillColor=none;top=0;left=0;bottom=0;right=0;align=left;spacingLeft=2;overflow=hidden;fontSize=11;" vertex="1" parent="foUp236TacWjybDignUc-135">
          <mxGeometry x="180" width="72" height="21" as="geometry">
            <mxRectangle width="72" height="21" as="alternateBounds" />
          </mxGeometry>
        </mxCell>
        <mxCell id="foUp236TacWjybDignUc-139" style="shape=tableRow;horizontal=0;startSize=0;swimlaneHead=0;swimlaneBody=0;fillColor=none;collapsible=0;dropTarget=0;points=[[0,0.5],[1,0.5]];portConstraint=eastwest;top=0;left=0;right=0;bottom=0;" vertex="1" parent="foUp236TacWjybDignUc-134">
          <mxGeometry y="46" width="252" height="21" as="geometry" />
        </mxCell>
        <mxCell id="foUp236TacWjybDignUc-140" value="string" style="shape=partialRectangle;connectable=0;fillColor=none;top=0;left=0;bottom=0;right=0;align=left;spacingLeft=2;overflow=hidden;fontSize=11;" vertex="1" parent="foUp236TacWjybDignUc-139">
          <mxGeometry width="36" height="21" as="geometry">
            <mxRectangle width="36" height="21" as="alternateBounds" />
          </mxGeometry>
        </mxCell>
        <mxCell id="foUp236TacWjybDignUc-141" value="Name" style="shape=partialRectangle;connectable=0;fillColor=none;top=0;left=0;bottom=0;right=0;align=left;spacingLeft=2;overflow=hidden;fontSize=11;" vertex="1" parent="foUp236TacWjybDignUc-139">
          <mxGeometry x="36" width="144" height="21" as="geometry">
            <mxRectangle width="144" height="21" as="alternateBounds" />
          </mxGeometry>
        </mxCell>
        <mxCell id="foUp236TacWjybDignUc-142" value="VARCHAR(100)" style="shape=partialRectangle;connectable=0;fillColor=none;top=0;left=0;bottom=0;right=0;align=left;spacingLeft=2;overflow=hidden;fontSize=11;" vertex="1" parent="foUp236TacWjybDignUc-139">
          <mxGeometry x="180" width="72" height="21" as="geometry">
            <mxRectangle width="72" height="21" as="alternateBounds" />
          </mxGeometry>
        </mxCell>
        <mxCell id="foUp236TacWjybDignUc-143" style="shape=tableRow;horizontal=0;startSize=0;swimlaneHead=0;swimlaneBody=0;fillColor=none;collapsible=0;dropTarget=0;points=[[0,0.5],[1,0.5]];portConstraint=eastwest;top=0;left=0;right=0;bottom=0;" vertex="1" parent="foUp236TacWjybDignUc-134">
          <mxGeometry y="67" width="252" height="21" as="geometry" />
        </mxCell>
        <mxCell id="foUp236TacWjybDignUc-144" value="string" style="shape=partialRectangle;connectable=0;fillColor=none;top=0;left=0;bottom=0;right=0;align=left;spacingLeft=2;overflow=hidden;fontSize=11;" vertex="1" parent="foUp236TacWjybDignUc-143">
          <mxGeometry width="36" height="21" as="geometry">
            <mxRectangle width="36" height="21" as="alternateBounds" />
          </mxGeometry>
        </mxCell>
        <mxCell id="foUp236TacWjybDignUc-145" value="Contact_Info" style="shape=partialRectangle;connectable=0;fillColor=none;top=0;left=0;bottom=0;right=0;align=left;spacingLeft=2;overflow=hidden;fontSize=11;" vertex="1" parent="foUp236TacWjybDignUc-143">
          <mxGeometry x="36" width="144" height="21" as="geometry">
            <mxRectangle width="144" height="21" as="alternateBounds" />
          </mxGeometry>
        </mxCell>
        <mxCell id="foUp236TacWjybDignUc-146" value="VARCHAR(255)" style="shape=partialRectangle;connectable=0;fillColor=none;top=0;left=0;bottom=0;right=0;align=left;spacingLeft=2;overflow=hidden;fontSize=11;" vertex="1" parent="foUp236TacWjybDignUc-143">
          <mxGeometry x="180" width="72" height="21" as="geometry">
            <mxRectangle width="72" height="21" as="alternateBounds" />
          </mxGeometry>
        </mxCell>
        <mxCell id="foUp236TacWjybDignUc-147" style="shape=tableRow;horizontal=0;startSize=0;swimlaneHead=0;swimlaneBody=0;fillColor=none;collapsible=0;dropTarget=0;points=[[0,0.5],[1,0.5]];portConstraint=eastwest;top=0;left=0;right=0;bottom=0;" vertex="1" parent="foUp236TacWjybDignUc-134">
          <mxGeometry y="88" width="252" height="21" as="geometry" />
        </mxCell>
        <mxCell id="foUp236TacWjybDignUc-148" value="string" style="shape=partialRectangle;connectable=0;fillColor=none;top=0;left=0;bottom=0;right=0;align=left;spacingLeft=2;overflow=hidden;fontSize=11;" vertex="1" parent="foUp236TacWjybDignUc-147">
          <mxGeometry width="36" height="21" as="geometry">
            <mxRectangle width="36" height="21" as="alternateBounds" />
          </mxGeometry>
        </mxCell>
        <mxCell id="foUp236TacWjybDignUc-149" value="Preferences" style="shape=partialRectangle;connectable=0;fillColor=none;top=0;left=0;bottom=0;right=0;align=left;spacingLeft=2;overflow=hidden;fontSize=11;" vertex="1" parent="foUp236TacWjybDignUc-147">
          <mxGeometry x="36" width="144" height="21" as="geometry">
            <mxRectangle width="144" height="21" as="alternateBounds" />
          </mxGeometry>
        </mxCell>
        <mxCell id="foUp236TacWjybDignUc-150" value="VARCHAR(255)" style="shape=partialRectangle;connectable=0;fillColor=none;top=0;left=0;bottom=0;right=0;align=left;spacingLeft=2;overflow=hidden;fontSize=11;" vertex="1" parent="foUp236TacWjybDignUc-147">
          <mxGeometry x="180" width="72" height="21" as="geometry">
            <mxRectangle width="72" height="21" as="alternateBounds" />
          </mxGeometry>
        </mxCell>
        <mxCell id="foUp236TacWjybDignUc-151" style="shape=tableRow;horizontal=0;startSize=0;swimlaneHead=0;swimlaneBody=0;fillColor=none;collapsible=0;dropTarget=0;points=[[0,0.5],[1,0.5]];portConstraint=eastwest;top=0;left=0;right=0;bottom=0;" vertex="1" parent="foUp236TacWjybDignUc-134">
          <mxGeometry y="109" width="252" height="21" as="geometry" />
        </mxCell>
        <mxCell id="foUp236TacWjybDignUc-152" value="string" style="shape=partialRectangle;connectable=0;fillColor=none;top=0;left=0;bottom=0;right=0;align=left;spacingLeft=2;overflow=hidden;fontSize=11;" vertex="1" parent="foUp236TacWjybDignUc-151">
          <mxGeometry width="36" height="21" as="geometry">
            <mxRectangle width="36" height="21" as="alternateBounds" />
          </mxGeometry>
        </mxCell>
        <mxCell id="foUp236TacWjybDignUc-153" value="Past_Reservation_History" style="shape=partialRectangle;connectable=0;fillColor=none;top=0;left=0;bottom=0;right=0;align=left;spacingLeft=2;overflow=hidden;fontSize=11;" vertex="1" parent="foUp236TacWjybDignUc-151">
          <mxGeometry x="36" width="144" height="21" as="geometry">
            <mxRectangle width="144" height="21" as="alternateBounds" />
          </mxGeometry>
        </mxCell>
        <mxCell id="foUp236TacWjybDignUc-154" value="TEXT" style="shape=partialRectangle;connectable=0;fillColor=none;top=0;left=0;bottom=0;right=0;align=left;spacingLeft=2;overflow=hidden;fontSize=11;" vertex="1" parent="foUp236TacWjybDignUc-151">
          <mxGeometry x="180" width="72" height="21" as="geometry">
            <mxRectangle width="72" height="21" as="alternateBounds" />
          </mxGeometry>
        </mxCell>
        <mxCell id="foUp236TacWjybDignUc-155" style="shape=tableRow;horizontal=0;startSize=0;swimlaneHead=0;swimlaneBody=0;fillColor=none;collapsible=0;dropTarget=0;points=[[0,0.5],[1,0.5]];portConstraint=eastwest;top=0;left=0;right=0;bottom=0;" vertex="1" parent="foUp236TacWjybDignUc-134">
          <mxGeometry y="130" width="252" height="21" as="geometry" />
        </mxCell>
        <mxCell id="foUp236TacWjybDignUc-156" value="string" style="shape=partialRectangle;connectable=0;fillColor=none;top=0;left=0;bottom=0;right=0;align=left;spacingLeft=2;overflow=hidden;fontSize=11;" vertex="1" parent="foUp236TacWjybDignUc-155">
          <mxGeometry width="36" height="21" as="geometry">
            <mxRectangle width="36" height="21" as="alternateBounds" />
          </mxGeometry>
        </mxCell>
        <mxCell id="foUp236TacWjybDignUc-157" value="Loyalty_Member_Status" style="shape=partialRectangle;connectable=0;fillColor=none;top=0;left=0;bottom=0;right=0;align=left;spacingLeft=2;overflow=hidden;fontSize=11;" vertex="1" parent="foUp236TacWjybDignUc-155">
          <mxGeometry x="36" width="144" height="21" as="geometry">
            <mxRectangle width="144" height="21" as="alternateBounds" />
          </mxGeometry>
        </mxCell>
        <mxCell id="foUp236TacWjybDignUc-158" value="VARCHAR(50)" style="shape=partialRectangle;connectable=0;fillColor=none;top=0;left=0;bottom=0;right=0;align=left;spacingLeft=2;overflow=hidden;fontSize=11;" vertex="1" parent="foUp236TacWjybDignUc-155">
          <mxGeometry x="180" width="72" height="21" as="geometry">
            <mxRectangle width="72" height="21" as="alternateBounds" />
          </mxGeometry>
        </mxCell>
        <mxCell id="foUp236TacWjybDignUc-159" value="Reservation" style="shape=table;startSize=25;container=1;collapsible=0;childLayout=tableLayout;fixedRows=1;rowLines=1;fontStyle=1;align=center;resizeLast=1;" vertex="1" parent="1">
          <mxGeometry x="38" y="499" width="210" height="151" as="geometry" />
        </mxCell>
        <mxCell id="foUp236TacWjybDignUc-160" style="shape=tableRow;horizontal=0;startSize=0;swimlaneHead=0;swimlaneBody=0;fillColor=none;collapsible=0;dropTarget=0;points=[[0,0.5],[1,0.5]];portConstraint=eastwest;top=0;left=0;right=0;bottom=0;" vertex="1" parent="foUp236TacWjybDignUc-159">
          <mxGeometry y="25" width="210" height="21" as="geometry" />
        </mxCell>
        <mxCell id="foUp236TacWjybDignUc-161" value="string" style="shape=partialRectangle;connectable=0;fillColor=none;top=0;left=0;bottom=0;right=0;align=left;spacingLeft=2;overflow=hidden;fontSize=11;" vertex="1" parent="foUp236TacWjybDignUc-160">
          <mxGeometry width="36" height="21" as="geometry">
            <mxRectangle width="36" height="21" as="alternateBounds" />
          </mxGeometry>
        </mxCell>
        <mxCell id="foUp236TacWjybDignUc-162" value="Reservation_ID" style="shape=partialRectangle;connectable=0;fillColor=none;top=0;left=0;bottom=0;right=0;align=left;spacingLeft=2;overflow=hidden;fontSize=11;" vertex="1" parent="foUp236TacWjybDignUc-160">
          <mxGeometry x="36" width="102" height="21" as="geometry">
            <mxRectangle width="102" height="21" as="alternateBounds" />
          </mxGeometry>
        </mxCell>
        <mxCell id="foUp236TacWjybDignUc-163" value="Primary Key" style="shape=partialRectangle;connectable=0;fillColor=none;top=0;left=0;bottom=0;right=0;align=left;spacingLeft=2;overflow=hidden;fontSize=11;" vertex="1" parent="foUp236TacWjybDignUc-160">
          <mxGeometry x="138" width="72" height="21" as="geometry">
            <mxRectangle width="72" height="21" as="alternateBounds" />
          </mxGeometry>
        </mxCell>
        <mxCell id="foUp236TacWjybDignUc-164" style="shape=tableRow;horizontal=0;startSize=0;swimlaneHead=0;swimlaneBody=0;fillColor=none;collapsible=0;dropTarget=0;points=[[0,0.5],[1,0.5]];portConstraint=eastwest;top=0;left=0;right=0;bottom=0;" vertex="1" parent="foUp236TacWjybDignUc-159">
          <mxGeometry y="46" width="210" height="21" as="geometry" />
        </mxCell>
        <mxCell id="foUp236TacWjybDignUc-165" value="string" style="shape=partialRectangle;connectable=0;fillColor=none;top=0;left=0;bottom=0;right=0;align=left;spacingLeft=2;overflow=hidden;fontSize=11;" vertex="1" parent="foUp236TacWjybDignUc-164">
          <mxGeometry width="36" height="21" as="geometry">
            <mxRectangle width="36" height="21" as="alternateBounds" />
          </mxGeometry>
        </mxCell>
        <mxCell id="foUp236TacWjybDignUc-166" value="Guest_ID" style="shape=partialRectangle;connectable=0;fillColor=none;top=0;left=0;bottom=0;right=0;align=left;spacingLeft=2;overflow=hidden;fontSize=11;" vertex="1" parent="foUp236TacWjybDignUc-164">
          <mxGeometry x="36" width="102" height="21" as="geometry">
            <mxRectangle width="102" height="21" as="alternateBounds" />
          </mxGeometry>
        </mxCell>
        <mxCell id="foUp236TacWjybDignUc-167" value="Foreign Key" style="shape=partialRectangle;connectable=0;fillColor=none;top=0;left=0;bottom=0;right=0;align=left;spacingLeft=2;overflow=hidden;fontSize=11;" vertex="1" parent="foUp236TacWjybDignUc-164">
          <mxGeometry x="138" width="72" height="21" as="geometry">
            <mxRectangle width="72" height="21" as="alternateBounds" />
          </mxGeometry>
        </mxCell>
        <mxCell id="foUp236TacWjybDignUc-168" style="shape=tableRow;horizontal=0;startSize=0;swimlaneHead=0;swimlaneBody=0;fillColor=none;collapsible=0;dropTarget=0;points=[[0,0.5],[1,0.5]];portConstraint=eastwest;top=0;left=0;right=0;bottom=0;" vertex="1" parent="foUp236TacWjybDignUc-159">
          <mxGeometry y="67" width="210" height="21" as="geometry" />
        </mxCell>
        <mxCell id="foUp236TacWjybDignUc-169" value="string" style="shape=partialRectangle;connectable=0;fillColor=none;top=0;left=0;bottom=0;right=0;align=left;spacingLeft=2;overflow=hidden;fontSize=11;" vertex="1" parent="foUp236TacWjybDignUc-168">
          <mxGeometry width="36" height="21" as="geometry">
            <mxRectangle width="36" height="21" as="alternateBounds" />
          </mxGeometry>
        </mxCell>
        <mxCell id="foUp236TacWjybDignUc-170" value="Room_ID" style="shape=partialRectangle;connectable=0;fillColor=none;top=0;left=0;bottom=0;right=0;align=left;spacingLeft=2;overflow=hidden;fontSize=11;" vertex="1" parent="foUp236TacWjybDignUc-168">
          <mxGeometry x="36" width="102" height="21" as="geometry">
            <mxRectangle width="102" height="21" as="alternateBounds" />
          </mxGeometry>
        </mxCell>
        <mxCell id="foUp236TacWjybDignUc-171" value="Foreign Key" style="shape=partialRectangle;connectable=0;fillColor=none;top=0;left=0;bottom=0;right=0;align=left;spacingLeft=2;overflow=hidden;fontSize=11;" vertex="1" parent="foUp236TacWjybDignUc-168">
          <mxGeometry x="138" width="72" height="21" as="geometry">
            <mxRectangle width="72" height="21" as="alternateBounds" />
          </mxGeometry>
        </mxCell>
        <mxCell id="foUp236TacWjybDignUc-172" style="shape=tableRow;horizontal=0;startSize=0;swimlaneHead=0;swimlaneBody=0;fillColor=none;collapsible=0;dropTarget=0;points=[[0,0.5],[1,0.5]];portConstraint=eastwest;top=0;left=0;right=0;bottom=0;" vertex="1" parent="foUp236TacWjybDignUc-159">
          <mxGeometry y="88" width="210" height="21" as="geometry" />
        </mxCell>
        <mxCell id="foUp236TacWjybDignUc-173" value="date" style="shape=partialRectangle;connectable=0;fillColor=none;top=0;left=0;bottom=0;right=0;align=left;spacingLeft=2;overflow=hidden;fontSize=11;" vertex="1" parent="foUp236TacWjybDignUc-172">
          <mxGeometry width="36" height="21" as="geometry">
            <mxRectangle width="36" height="21" as="alternateBounds" />
          </mxGeometry>
        </mxCell>
        <mxCell id="foUp236TacWjybDignUc-174" value="Check_In_Date" style="shape=partialRectangle;connectable=0;fillColor=none;top=0;left=0;bottom=0;right=0;align=left;spacingLeft=2;overflow=hidden;fontSize=11;" vertex="1" parent="foUp236TacWjybDignUc-172">
          <mxGeometry x="36" width="102" height="21" as="geometry">
            <mxRectangle width="102" height="21" as="alternateBounds" />
          </mxGeometry>
        </mxCell>
        <mxCell id="foUp236TacWjybDignUc-175" value="DATE" style="shape=partialRectangle;connectable=0;fillColor=none;top=0;left=0;bottom=0;right=0;align=left;spacingLeft=2;overflow=hidden;fontSize=11;" vertex="1" parent="foUp236TacWjybDignUc-172">
          <mxGeometry x="138" width="72" height="21" as="geometry">
            <mxRectangle width="72" height="21" as="alternateBounds" />
          </mxGeometry>
        </mxCell>
        <mxCell id="foUp236TacWjybDignUc-176" style="shape=tableRow;horizontal=0;startSize=0;swimlaneHead=0;swimlaneBody=0;fillColor=none;collapsible=0;dropTarget=0;points=[[0,0.5],[1,0.5]];portConstraint=eastwest;top=0;left=0;right=0;bottom=0;" vertex="1" parent="foUp236TacWjybDignUc-159">
          <mxGeometry y="109" width="210" height="21" as="geometry" />
        </mxCell>
        <mxCell id="foUp236TacWjybDignUc-177" value="date" style="shape=partialRectangle;connectable=0;fillColor=none;top=0;left=0;bottom=0;right=0;align=left;spacingLeft=2;overflow=hidden;fontSize=11;" vertex="1" parent="foUp236TacWjybDignUc-176">
          <mxGeometry width="36" height="21" as="geometry">
            <mxRectangle width="36" height="21" as="alternateBounds" />
          </mxGeometry>
        </mxCell>
        <mxCell id="foUp236TacWjybDignUc-178" value="Check_Out_Date" style="shape=partialRectangle;connectable=0;fillColor=none;top=0;left=0;bottom=0;right=0;align=left;spacingLeft=2;overflow=hidden;fontSize=11;" vertex="1" parent="foUp236TacWjybDignUc-176">
          <mxGeometry x="36" width="102" height="21" as="geometry">
            <mxRectangle width="102" height="21" as="alternateBounds" />
          </mxGeometry>
        </mxCell>
        <mxCell id="foUp236TacWjybDignUc-179" value="DATE" style="shape=partialRectangle;connectable=0;fillColor=none;top=0;left=0;bottom=0;right=0;align=left;spacingLeft=2;overflow=hidden;fontSize=11;" vertex="1" parent="foUp236TacWjybDignUc-176">
          <mxGeometry x="138" width="72" height="21" as="geometry">
            <mxRectangle width="72" height="21" as="alternateBounds" />
          </mxGeometry>
        </mxCell>
        <mxCell id="foUp236TacWjybDignUc-180" style="shape=tableRow;horizontal=0;startSize=0;swimlaneHead=0;swimlaneBody=0;fillColor=none;collapsible=0;dropTarget=0;points=[[0,0.5],[1,0.5]];portConstraint=eastwest;top=0;left=0;right=0;bottom=0;" vertex="1" parent="foUp236TacWjybDignUc-159">
          <mxGeometry y="130" width="210" height="21" as="geometry" />
        </mxCell>
        <mxCell id="foUp236TacWjybDignUc-181" value="string" style="shape=partialRectangle;connectable=0;fillColor=none;top=0;left=0;bottom=0;right=0;align=left;spacingLeft=2;overflow=hidden;fontSize=11;" vertex="1" parent="foUp236TacWjybDignUc-180">
          <mxGeometry width="36" height="21" as="geometry">
            <mxRectangle width="36" height="21" as="alternateBounds" />
          </mxGeometry>
        </mxCell>
        <mxCell id="foUp236TacWjybDignUc-182" value="Special_Requests" style="shape=partialRectangle;connectable=0;fillColor=none;top=0;left=0;bottom=0;right=0;align=left;spacingLeft=2;overflow=hidden;fontSize=11;" vertex="1" parent="foUp236TacWjybDignUc-180">
          <mxGeometry x="36" width="102" height="21" as="geometry">
            <mxRectangle width="102" height="21" as="alternateBounds" />
          </mxGeometry>
        </mxCell>
        <mxCell id="foUp236TacWjybDignUc-183" value="VARCHAR(255)" style="shape=partialRectangle;connectable=0;fillColor=none;top=0;left=0;bottom=0;right=0;align=left;spacingLeft=2;overflow=hidden;fontSize=11;" vertex="1" parent="foUp236TacWjybDignUc-180">
          <mxGeometry x="138" width="72" height="21" as="geometry">
            <mxRectangle width="72" height="21" as="alternateBounds" />
          </mxGeometry>
        </mxCell>
        <mxCell id="foUp236TacWjybDignUc-184" value="Room" style="shape=table;startSize=25;container=1;collapsible=0;childLayout=tableLayout;fixedRows=1;rowLines=1;fontStyle=1;align=center;resizeLast=1;" vertex="1" parent="1">
          <mxGeometry x="53" y="749" width="180" height="109" as="geometry" />
        </mxCell>
        <mxCell id="foUp236TacWjybDignUc-185" style="shape=tableRow;horizontal=0;startSize=0;swimlaneHead=0;swimlaneBody=0;fillColor=none;collapsible=0;dropTarget=0;points=[[0,0.5],[1,0.5]];portConstraint=eastwest;top=0;left=0;right=0;bottom=0;" vertex="1" parent="foUp236TacWjybDignUc-184">
          <mxGeometry y="25" width="180" height="21" as="geometry" />
        </mxCell>
        <mxCell id="foUp236TacWjybDignUc-186" value="string" style="shape=partialRectangle;connectable=0;fillColor=none;top=0;left=0;bottom=0;right=0;align=left;spacingLeft=2;overflow=hidden;fontSize=11;" vertex="1" parent="foUp236TacWjybDignUc-185">
          <mxGeometry width="36" height="21" as="geometry">
            <mxRectangle width="36" height="21" as="alternateBounds" />
          </mxGeometry>
        </mxCell>
        <mxCell id="foUp236TacWjybDignUc-187" value="Room_ID" style="shape=partialRectangle;connectable=0;fillColor=none;top=0;left=0;bottom=0;right=0;align=left;spacingLeft=2;overflow=hidden;fontSize=11;" vertex="1" parent="foUp236TacWjybDignUc-185">
          <mxGeometry x="36" width="72" height="21" as="geometry">
            <mxRectangle width="72" height="21" as="alternateBounds" />
          </mxGeometry>
        </mxCell>
        <mxCell id="foUp236TacWjybDignUc-188" value="Primary Key" style="shape=partialRectangle;connectable=0;fillColor=none;top=0;left=0;bottom=0;right=0;align=left;spacingLeft=2;overflow=hidden;fontSize=11;" vertex="1" parent="foUp236TacWjybDignUc-185">
          <mxGeometry x="108" width="72" height="21" as="geometry">
            <mxRectangle width="72" height="21" as="alternateBounds" />
          </mxGeometry>
        </mxCell>
        <mxCell id="foUp236TacWjybDignUc-189" style="shape=tableRow;horizontal=0;startSize=0;swimlaneHead=0;swimlaneBody=0;fillColor=none;collapsible=0;dropTarget=0;points=[[0,0.5],[1,0.5]];portConstraint=eastwest;top=0;left=0;right=0;bottom=0;" vertex="1" parent="foUp236TacWjybDignUc-184">
          <mxGeometry y="46" width="180" height="21" as="geometry" />
        </mxCell>
        <mxCell id="foUp236TacWjybDignUc-190" value="string" style="shape=partialRectangle;connectable=0;fillColor=none;top=0;left=0;bottom=0;right=0;align=left;spacingLeft=2;overflow=hidden;fontSize=11;" vertex="1" parent="foUp236TacWjybDignUc-189">
          <mxGeometry width="36" height="21" as="geometry">
            <mxRectangle width="36" height="21" as="alternateBounds" />
          </mxGeometry>
        </mxCell>
        <mxCell id="foUp236TacWjybDignUc-191" value="Type" style="shape=partialRectangle;connectable=0;fillColor=none;top=0;left=0;bottom=0;right=0;align=left;spacingLeft=2;overflow=hidden;fontSize=11;" vertex="1" parent="foUp236TacWjybDignUc-189">
          <mxGeometry x="36" width="72" height="21" as="geometry">
            <mxRectangle width="72" height="21" as="alternateBounds" />
          </mxGeometry>
        </mxCell>
        <mxCell id="foUp236TacWjybDignUc-192" value="VARCHAR(50)" style="shape=partialRectangle;connectable=0;fillColor=none;top=0;left=0;bottom=0;right=0;align=left;spacingLeft=2;overflow=hidden;fontSize=11;" vertex="1" parent="foUp236TacWjybDignUc-189">
          <mxGeometry x="108" width="72" height="21" as="geometry">
            <mxRectangle width="72" height="21" as="alternateBounds" />
          </mxGeometry>
        </mxCell>
        <mxCell id="foUp236TacWjybDignUc-193" style="shape=tableRow;horizontal=0;startSize=0;swimlaneHead=0;swimlaneBody=0;fillColor=none;collapsible=0;dropTarget=0;points=[[0,0.5],[1,0.5]];portConstraint=eastwest;top=0;left=0;right=0;bottom=0;" vertex="1" parent="foUp236TacWjybDignUc-184">
          <mxGeometry y="67" width="180" height="21" as="geometry" />
        </mxCell>
        <mxCell id="foUp236TacWjybDignUc-194" value="int" style="shape=partialRectangle;connectable=0;fillColor=none;top=0;left=0;bottom=0;right=0;align=left;spacingLeft=2;overflow=hidden;fontSize=11;" vertex="1" parent="foUp236TacWjybDignUc-193">
          <mxGeometry width="36" height="21" as="geometry">
            <mxRectangle width="36" height="21" as="alternateBounds" />
          </mxGeometry>
        </mxCell>
        <mxCell id="foUp236TacWjybDignUc-195" value="Occupancy" style="shape=partialRectangle;connectable=0;fillColor=none;top=0;left=0;bottom=0;right=0;align=left;spacingLeft=2;overflow=hidden;fontSize=11;" vertex="1" parent="foUp236TacWjybDignUc-193">
          <mxGeometry x="36" width="72" height="21" as="geometry">
            <mxRectangle width="72" height="21" as="alternateBounds" />
          </mxGeometry>
        </mxCell>
        <mxCell id="foUp236TacWjybDignUc-196" value="INTEGER" style="shape=partialRectangle;connectable=0;fillColor=none;top=0;left=0;bottom=0;right=0;align=left;spacingLeft=2;overflow=hidden;fontSize=11;" vertex="1" parent="foUp236TacWjybDignUc-193">
          <mxGeometry x="108" width="72" height="21" as="geometry">
            <mxRectangle width="72" height="21" as="alternateBounds" />
          </mxGeometry>
        </mxCell>
        <mxCell id="foUp236TacWjybDignUc-197" style="shape=tableRow;horizontal=0;startSize=0;swimlaneHead=0;swimlaneBody=0;fillColor=none;collapsible=0;dropTarget=0;points=[[0,0.5],[1,0.5]];portConstraint=eastwest;top=0;left=0;right=0;bottom=0;" vertex="1" parent="foUp236TacWjybDignUc-184">
          <mxGeometry y="88" width="180" height="21" as="geometry" />
        </mxCell>
        <mxCell id="foUp236TacWjybDignUc-198" value="string" style="shape=partialRectangle;connectable=0;fillColor=none;top=0;left=0;bottom=0;right=0;align=left;spacingLeft=2;overflow=hidden;fontSize=11;" vertex="1" parent="foUp236TacWjybDignUc-197">
          <mxGeometry width="36" height="21" as="geometry">
            <mxRectangle width="36" height="21" as="alternateBounds" />
          </mxGeometry>
        </mxCell>
        <mxCell id="foUp236TacWjybDignUc-199" value="Amenities" style="shape=partialRectangle;connectable=0;fillColor=none;top=0;left=0;bottom=0;right=0;align=left;spacingLeft=2;overflow=hidden;fontSize=11;" vertex="1" parent="foUp236TacWjybDignUc-197">
          <mxGeometry x="36" width="72" height="21" as="geometry">
            <mxRectangle width="72" height="21" as="alternateBounds" />
          </mxGeometry>
        </mxCell>
        <mxCell id="foUp236TacWjybDignUc-200" value="VARCHAR(255)" style="shape=partialRectangle;connectable=0;fillColor=none;top=0;left=0;bottom=0;right=0;align=left;spacingLeft=2;overflow=hidden;fontSize=11;" vertex="1" parent="foUp236TacWjybDignUc-197">
          <mxGeometry x="108" width="72" height="21" as="geometry">
            <mxRectangle width="72" height="21" as="alternateBounds" />
          </mxGeometry>
        </mxCell>
        <mxCell id="foUp236TacWjybDignUc-201" value="Staff" style="shape=table;startSize=25;container=1;collapsible=0;childLayout=tableLayout;fixedRows=1;rowLines=1;fontStyle=1;align=center;resizeLast=1;" vertex="1" parent="1">
          <mxGeometry x="546" y="20" width="200" height="130" as="geometry" />
        </mxCell>
        <mxCell id="foUp236TacWjybDignUc-202" style="shape=tableRow;horizontal=0;startSize=0;swimlaneHead=0;swimlaneBody=0;fillColor=none;collapsible=0;dropTarget=0;points=[[0,0.5],[1,0.5]];portConstraint=eastwest;top=0;left=0;right=0;bottom=0;" vertex="1" parent="foUp236TacWjybDignUc-201">
          <mxGeometry y="25" width="200" height="21" as="geometry" />
        </mxCell>
        <mxCell id="foUp236TacWjybDignUc-203" value="string" style="shape=partialRectangle;connectable=0;fillColor=none;top=0;left=0;bottom=0;right=0;align=left;spacingLeft=2;overflow=hidden;fontSize=11;" vertex="1" parent="foUp236TacWjybDignUc-202">
          <mxGeometry width="36" height="21" as="geometry">
            <mxRectangle width="36" height="21" as="alternateBounds" />
          </mxGeometry>
        </mxCell>
        <mxCell id="foUp236TacWjybDignUc-204" value="Staff_ID" style="shape=partialRectangle;connectable=0;fillColor=none;top=0;left=0;bottom=0;right=0;align=left;spacingLeft=2;overflow=hidden;fontSize=11;" vertex="1" parent="foUp236TacWjybDignUc-202">
          <mxGeometry x="36" width="92" height="21" as="geometry">
            <mxRectangle width="92" height="21" as="alternateBounds" />
          </mxGeometry>
        </mxCell>
        <mxCell id="foUp236TacWjybDignUc-205" value="Primary Key" style="shape=partialRectangle;connectable=0;fillColor=none;top=0;left=0;bottom=0;right=0;align=left;spacingLeft=2;overflow=hidden;fontSize=11;" vertex="1" parent="foUp236TacWjybDignUc-202">
          <mxGeometry x="128" width="72" height="21" as="geometry">
            <mxRectangle width="72" height="21" as="alternateBounds" />
          </mxGeometry>
        </mxCell>
        <mxCell id="foUp236TacWjybDignUc-206" style="shape=tableRow;horizontal=0;startSize=0;swimlaneHead=0;swimlaneBody=0;fillColor=none;collapsible=0;dropTarget=0;points=[[0,0.5],[1,0.5]];portConstraint=eastwest;top=0;left=0;right=0;bottom=0;" vertex="1" parent="foUp236TacWjybDignUc-201">
          <mxGeometry y="46" width="200" height="21" as="geometry" />
        </mxCell>
        <mxCell id="foUp236TacWjybDignUc-207" value="string" style="shape=partialRectangle;connectable=0;fillColor=none;top=0;left=0;bottom=0;right=0;align=left;spacingLeft=2;overflow=hidden;fontSize=11;" vertex="1" parent="foUp236TacWjybDignUc-206">
          <mxGeometry width="36" height="21" as="geometry">
            <mxRectangle width="36" height="21" as="alternateBounds" />
          </mxGeometry>
        </mxCell>
        <mxCell id="foUp236TacWjybDignUc-208" value="Name" style="shape=partialRectangle;connectable=0;fillColor=none;top=0;left=0;bottom=0;right=0;align=left;spacingLeft=2;overflow=hidden;fontSize=11;" vertex="1" parent="foUp236TacWjybDignUc-206">
          <mxGeometry x="36" width="92" height="21" as="geometry">
            <mxRectangle width="92" height="21" as="alternateBounds" />
          </mxGeometry>
        </mxCell>
        <mxCell id="foUp236TacWjybDignUc-209" value="VARCHAR(100)" style="shape=partialRectangle;connectable=0;fillColor=none;top=0;left=0;bottom=0;right=0;align=left;spacingLeft=2;overflow=hidden;fontSize=11;" vertex="1" parent="foUp236TacWjybDignUc-206">
          <mxGeometry x="128" width="72" height="21" as="geometry">
            <mxRectangle width="72" height="21" as="alternateBounds" />
          </mxGeometry>
        </mxCell>
        <mxCell id="foUp236TacWjybDignUc-210" style="shape=tableRow;horizontal=0;startSize=0;swimlaneHead=0;swimlaneBody=0;fillColor=none;collapsible=0;dropTarget=0;points=[[0,0.5],[1,0.5]];portConstraint=eastwest;top=0;left=0;right=0;bottom=0;" vertex="1" parent="foUp236TacWjybDignUc-201">
          <mxGeometry y="67" width="200" height="21" as="geometry" />
        </mxCell>
        <mxCell id="foUp236TacWjybDignUc-211" value="string" style="shape=partialRectangle;connectable=0;fillColor=none;top=0;left=0;bottom=0;right=0;align=left;spacingLeft=2;overflow=hidden;fontSize=11;" vertex="1" parent="foUp236TacWjybDignUc-210">
          <mxGeometry width="36" height="21" as="geometry">
            <mxRectangle width="36" height="21" as="alternateBounds" />
          </mxGeometry>
        </mxCell>
        <mxCell id="foUp236TacWjybDignUc-212" value="Contact_Details" style="shape=partialRectangle;connectable=0;fillColor=none;top=0;left=0;bottom=0;right=0;align=left;spacingLeft=2;overflow=hidden;fontSize=11;" vertex="1" parent="foUp236TacWjybDignUc-210">
          <mxGeometry x="36" width="92" height="21" as="geometry">
            <mxRectangle width="92" height="21" as="alternateBounds" />
          </mxGeometry>
        </mxCell>
        <mxCell id="foUp236TacWjybDignUc-213" value="VARCHAR(255)" style="shape=partialRectangle;connectable=0;fillColor=none;top=0;left=0;bottom=0;right=0;align=left;spacingLeft=2;overflow=hidden;fontSize=11;" vertex="1" parent="foUp236TacWjybDignUc-210">
          <mxGeometry x="128" width="72" height="21" as="geometry">
            <mxRectangle width="72" height="21" as="alternateBounds" />
          </mxGeometry>
        </mxCell>
        <mxCell id="foUp236TacWjybDignUc-214" style="shape=tableRow;horizontal=0;startSize=0;swimlaneHead=0;swimlaneBody=0;fillColor=none;collapsible=0;dropTarget=0;points=[[0,0.5],[1,0.5]];portConstraint=eastwest;top=0;left=0;right=0;bottom=0;" vertex="1" parent="foUp236TacWjybDignUc-201">
          <mxGeometry y="88" width="200" height="21" as="geometry" />
        </mxCell>
        <mxCell id="foUp236TacWjybDignUc-215" value="string" style="shape=partialRectangle;connectable=0;fillColor=none;top=0;left=0;bottom=0;right=0;align=left;spacingLeft=2;overflow=hidden;fontSize=11;" vertex="1" parent="foUp236TacWjybDignUc-214">
          <mxGeometry width="36" height="21" as="geometry">
            <mxRectangle width="36" height="21" as="alternateBounds" />
          </mxGeometry>
        </mxCell>
        <mxCell id="foUp236TacWjybDignUc-216" value="Job_Title" style="shape=partialRectangle;connectable=0;fillColor=none;top=0;left=0;bottom=0;right=0;align=left;spacingLeft=2;overflow=hidden;fontSize=11;" vertex="1" parent="foUp236TacWjybDignUc-214">
          <mxGeometry x="36" width="92" height="21" as="geometry">
            <mxRectangle width="92" height="21" as="alternateBounds" />
          </mxGeometry>
        </mxCell>
        <mxCell id="foUp236TacWjybDignUc-217" value="VARCHAR(100)" style="shape=partialRectangle;connectable=0;fillColor=none;top=0;left=0;bottom=0;right=0;align=left;spacingLeft=2;overflow=hidden;fontSize=11;" vertex="1" parent="foUp236TacWjybDignUc-214">
          <mxGeometry x="128" width="72" height="21" as="geometry">
            <mxRectangle width="72" height="21" as="alternateBounds" />
          </mxGeometry>
        </mxCell>
        <mxCell id="foUp236TacWjybDignUc-218" style="shape=tableRow;horizontal=0;startSize=0;swimlaneHead=0;swimlaneBody=0;fillColor=none;collapsible=0;dropTarget=0;points=[[0,0.5],[1,0.5]];portConstraint=eastwest;top=0;left=0;right=0;bottom=0;" vertex="1" parent="foUp236TacWjybDignUc-201">
          <mxGeometry y="109" width="200" height="21" as="geometry" />
        </mxCell>
        <mxCell id="foUp236TacWjybDignUc-219" value="string" style="shape=partialRectangle;connectable=0;fillColor=none;top=0;left=0;bottom=0;right=0;align=left;spacingLeft=2;overflow=hidden;fontSize=11;" vertex="1" parent="foUp236TacWjybDignUc-218">
          <mxGeometry width="36" height="21" as="geometry">
            <mxRectangle width="36" height="21" as="alternateBounds" />
          </mxGeometry>
        </mxCell>
        <mxCell id="foUp236TacWjybDignUc-220" value="Work_Schedule" style="shape=partialRectangle;connectable=0;fillColor=none;top=0;left=0;bottom=0;right=0;align=left;spacingLeft=2;overflow=hidden;fontSize=11;" vertex="1" parent="foUp236TacWjybDignUc-218">
          <mxGeometry x="36" width="92" height="21" as="geometry">
            <mxRectangle width="92" height="21" as="alternateBounds" />
          </mxGeometry>
        </mxCell>
        <mxCell id="foUp236TacWjybDignUc-221" value="VARCHAR(100)" style="shape=partialRectangle;connectable=0;fillColor=none;top=0;left=0;bottom=0;right=0;align=left;spacingLeft=2;overflow=hidden;fontSize=11;" vertex="1" parent="foUp236TacWjybDignUc-218">
          <mxGeometry x="128" width="72" height="21" as="geometry">
            <mxRectangle width="72" height="21" as="alternateBounds" />
          </mxGeometry>
        </mxCell>
        <mxCell id="foUp236TacWjybDignUc-222" value="Role" style="shape=table;startSize=25;container=1;collapsible=0;childLayout=tableLayout;fixedRows=1;rowLines=1;fontStyle=1;align=center;resizeLast=1;" vertex="1" parent="1">
          <mxGeometry x="367" y="291" width="179" height="67" as="geometry" />
        </mxCell>
        <mxCell id="foUp236TacWjybDignUc-223" style="shape=tableRow;horizontal=0;startSize=0;swimlaneHead=0;swimlaneBody=0;fillColor=none;collapsible=0;dropTarget=0;points=[[0,0.5],[1,0.5]];portConstraint=eastwest;top=0;left=0;right=0;bottom=0;" vertex="1" parent="foUp236TacWjybDignUc-222">
          <mxGeometry y="25" width="179" height="21" as="geometry" />
        </mxCell>
        <mxCell id="foUp236TacWjybDignUc-224" value="string" style="shape=partialRectangle;connectable=0;fillColor=none;top=0;left=0;bottom=0;right=0;align=left;spacingLeft=2;overflow=hidden;fontSize=11;" vertex="1" parent="foUp236TacWjybDignUc-223">
          <mxGeometry width="36" height="21" as="geometry">
            <mxRectangle width="36" height="21" as="alternateBounds" />
          </mxGeometry>
        </mxCell>
        <mxCell id="foUp236TacWjybDignUc-225" value="Role_ID" style="shape=partialRectangle;connectable=0;fillColor=none;top=0;left=0;bottom=0;right=0;align=left;spacingLeft=2;overflow=hidden;fontSize=11;" vertex="1" parent="foUp236TacWjybDignUc-223">
          <mxGeometry x="36" width="71" height="21" as="geometry">
            <mxRectangle width="71" height="21" as="alternateBounds" />
          </mxGeometry>
        </mxCell>
        <mxCell id="foUp236TacWjybDignUc-226" value="Primary Key" style="shape=partialRectangle;connectable=0;fillColor=none;top=0;left=0;bottom=0;right=0;align=left;spacingLeft=2;overflow=hidden;fontSize=11;" vertex="1" parent="foUp236TacWjybDignUc-223">
          <mxGeometry x="107" width="72" height="21" as="geometry">
            <mxRectangle width="72" height="21" as="alternateBounds" />
          </mxGeometry>
        </mxCell>
        <mxCell id="foUp236TacWjybDignUc-227" style="shape=tableRow;horizontal=0;startSize=0;swimlaneHead=0;swimlaneBody=0;fillColor=none;collapsible=0;dropTarget=0;points=[[0,0.5],[1,0.5]];portConstraint=eastwest;top=0;left=0;right=0;bottom=0;" vertex="1" parent="foUp236TacWjybDignUc-222">
          <mxGeometry y="46" width="179" height="21" as="geometry" />
        </mxCell>
        <mxCell id="foUp236TacWjybDignUc-228" value="string" style="shape=partialRectangle;connectable=0;fillColor=none;top=0;left=0;bottom=0;right=0;align=left;spacingLeft=2;overflow=hidden;fontSize=11;" vertex="1" parent="foUp236TacWjybDignUc-227">
          <mxGeometry width="36" height="21" as="geometry">
            <mxRectangle width="36" height="21" as="alternateBounds" />
          </mxGeometry>
        </mxCell>
        <mxCell id="foUp236TacWjybDignUc-229" value="Description" style="shape=partialRectangle;connectable=0;fillColor=none;top=0;left=0;bottom=0;right=0;align=left;spacingLeft=2;overflow=hidden;fontSize=11;" vertex="1" parent="foUp236TacWjybDignUc-227">
          <mxGeometry x="36" width="71" height="21" as="geometry">
            <mxRectangle width="71" height="21" as="alternateBounds" />
          </mxGeometry>
        </mxCell>
        <mxCell id="foUp236TacWjybDignUc-230" value="VARCHAR(255)" style="shape=partialRectangle;connectable=0;fillColor=none;top=0;left=0;bottom=0;right=0;align=left;spacingLeft=2;overflow=hidden;fontSize=11;" vertex="1" parent="foUp236TacWjybDignUc-227">
          <mxGeometry x="107" width="72" height="21" as="geometry">
            <mxRectangle width="72" height="21" as="alternateBounds" />
          </mxGeometry>
        </mxCell>
        <mxCell id="foUp236TacWjybDignUc-231" value="Task" style="shape=table;startSize=25;container=1;collapsible=0;childLayout=tableLayout;fixedRows=1;rowLines=1;fontStyle=1;align=center;resizeLast=1;" vertex="1" parent="1">
          <mxGeometry x="646" y="291" width="179" height="67" as="geometry" />
        </mxCell>
        <mxCell id="foUp236TacWjybDignUc-232" style="shape=tableRow;horizontal=0;startSize=0;swimlaneHead=0;swimlaneBody=0;fillColor=none;collapsible=0;dropTarget=0;points=[[0,0.5],[1,0.5]];portConstraint=eastwest;top=0;left=0;right=0;bottom=0;" vertex="1" parent="foUp236TacWjybDignUc-231">
          <mxGeometry y="25" width="179" height="21" as="geometry" />
        </mxCell>
        <mxCell id="foUp236TacWjybDignUc-233" value="string" style="shape=partialRectangle;connectable=0;fillColor=none;top=0;left=0;bottom=0;right=0;align=left;spacingLeft=2;overflow=hidden;fontSize=11;" vertex="1" parent="foUp236TacWjybDignUc-232">
          <mxGeometry width="36" height="21" as="geometry">
            <mxRectangle width="36" height="21" as="alternateBounds" />
          </mxGeometry>
        </mxCell>
        <mxCell id="foUp236TacWjybDignUc-234" value="Task_ID" style="shape=partialRectangle;connectable=0;fillColor=none;top=0;left=0;bottom=0;right=0;align=left;spacingLeft=2;overflow=hidden;fontSize=11;" vertex="1" parent="foUp236TacWjybDignUc-232">
          <mxGeometry x="36" width="71" height="21" as="geometry">
            <mxRectangle width="71" height="21" as="alternateBounds" />
          </mxGeometry>
        </mxCell>
        <mxCell id="foUp236TacWjybDignUc-235" value="Primary Key" style="shape=partialRectangle;connectable=0;fillColor=none;top=0;left=0;bottom=0;right=0;align=left;spacingLeft=2;overflow=hidden;fontSize=11;" vertex="1" parent="foUp236TacWjybDignUc-232">
          <mxGeometry x="107" width="72" height="21" as="geometry">
            <mxRectangle width="72" height="21" as="alternateBounds" />
          </mxGeometry>
        </mxCell>
        <mxCell id="foUp236TacWjybDignUc-236" style="shape=tableRow;horizontal=0;startSize=0;swimlaneHead=0;swimlaneBody=0;fillColor=none;collapsible=0;dropTarget=0;points=[[0,0.5],[1,0.5]];portConstraint=eastwest;top=0;left=0;right=0;bottom=0;" vertex="1" parent="foUp236TacWjybDignUc-231">
          <mxGeometry y="46" width="179" height="21" as="geometry" />
        </mxCell>
        <mxCell id="foUp236TacWjybDignUc-237" value="string" style="shape=partialRectangle;connectable=0;fillColor=none;top=0;left=0;bottom=0;right=0;align=left;spacingLeft=2;overflow=hidden;fontSize=11;" vertex="1" parent="foUp236TacWjybDignUc-236">
          <mxGeometry width="36" height="21" as="geometry">
            <mxRectangle width="36" height="21" as="alternateBounds" />
          </mxGeometry>
        </mxCell>
        <mxCell id="foUp236TacWjybDignUc-238" value="Description" style="shape=partialRectangle;connectable=0;fillColor=none;top=0;left=0;bottom=0;right=0;align=left;spacingLeft=2;overflow=hidden;fontSize=11;" vertex="1" parent="foUp236TacWjybDignUc-236">
          <mxGeometry x="36" width="71" height="21" as="geometry">
            <mxRectangle width="71" height="21" as="alternateBounds" />
          </mxGeometry>
        </mxCell>
        <mxCell id="foUp236TacWjybDignUc-239" value="VARCHAR(255)" style="shape=partialRectangle;connectable=0;fillColor=none;top=0;left=0;bottom=0;right=0;align=left;spacingLeft=2;overflow=hidden;fontSize=11;" vertex="1" parent="foUp236TacWjybDignUc-236">
          <mxGeometry x="107" width="72" height="21" as="geometry">
            <mxRectangle width="72" height="21" as="alternateBounds" />
          </mxGeometry>
        </mxCell>
        <mxCell id="foUp236TacWjybDignUc-240" value="Inventory" style="shape=table;startSize=25;container=1;collapsible=0;childLayout=tableLayout;fixedRows=1;rowLines=1;fontStyle=1;align=center;resizeLast=1;" vertex="1" parent="1">
          <mxGeometry x="929" y="41" width="205" height="88" as="geometry" />
        </mxCell>
        <mxCell id="foUp236TacWjybDignUc-241" style="shape=tableRow;horizontal=0;startSize=0;swimlaneHead=0;swimlaneBody=0;fillColor=none;collapsible=0;dropTarget=0;points=[[0,0.5],[1,0.5]];portConstraint=eastwest;top=0;left=0;right=0;bottom=0;" vertex="1" parent="foUp236TacWjybDignUc-240">
          <mxGeometry y="25" width="205" height="21" as="geometry" />
        </mxCell>
        <mxCell id="foUp236TacWjybDignUc-242" value="string" style="shape=partialRectangle;connectable=0;fillColor=none;top=0;left=0;bottom=0;right=0;align=left;spacingLeft=2;overflow=hidden;fontSize=11;" vertex="1" parent="foUp236TacWjybDignUc-241">
          <mxGeometry width="36" height="21" as="geometry">
            <mxRectangle width="36" height="21" as="alternateBounds" />
          </mxGeometry>
        </mxCell>
        <mxCell id="foUp236TacWjybDignUc-243" value="Inventory_ID" style="shape=partialRectangle;connectable=0;fillColor=none;top=0;left=0;bottom=0;right=0;align=left;spacingLeft=2;overflow=hidden;fontSize=11;" vertex="1" parent="foUp236TacWjybDignUc-241">
          <mxGeometry x="36" width="97" height="21" as="geometry">
            <mxRectangle width="97" height="21" as="alternateBounds" />
          </mxGeometry>
        </mxCell>
        <mxCell id="foUp236TacWjybDignUc-244" value="Primary Key" style="shape=partialRectangle;connectable=0;fillColor=none;top=0;left=0;bottom=0;right=0;align=left;spacingLeft=2;overflow=hidden;fontSize=11;" vertex="1" parent="foUp236TacWjybDignUc-241">
          <mxGeometry x="133" width="72" height="21" as="geometry">
            <mxRectangle width="72" height="21" as="alternateBounds" />
          </mxGeometry>
        </mxCell>
        <mxCell id="foUp236TacWjybDignUc-245" style="shape=tableRow;horizontal=0;startSize=0;swimlaneHead=0;swimlaneBody=0;fillColor=none;collapsible=0;dropTarget=0;points=[[0,0.5],[1,0.5]];portConstraint=eastwest;top=0;left=0;right=0;bottom=0;" vertex="1" parent="foUp236TacWjybDignUc-240">
          <mxGeometry y="46" width="205" height="21" as="geometry" />
        </mxCell>
        <mxCell id="foUp236TacWjybDignUc-246" value="string" style="shape=partialRectangle;connectable=0;fillColor=none;top=0;left=0;bottom=0;right=0;align=left;spacingLeft=2;overflow=hidden;fontSize=11;" vertex="1" parent="foUp236TacWjybDignUc-245">
          <mxGeometry width="36" height="21" as="geometry">
            <mxRectangle width="36" height="21" as="alternateBounds" />
          </mxGeometry>
        </mxCell>
        <mxCell id="foUp236TacWjybDignUc-247" value="Item_Description" style="shape=partialRectangle;connectable=0;fillColor=none;top=0;left=0;bottom=0;right=0;align=left;spacingLeft=2;overflow=hidden;fontSize=11;" vertex="1" parent="foUp236TacWjybDignUc-245">
          <mxGeometry x="36" width="97" height="21" as="geometry">
            <mxRectangle width="97" height="21" as="alternateBounds" />
          </mxGeometry>
        </mxCell>
        <mxCell id="foUp236TacWjybDignUc-248" value="VARCHAR(255)" style="shape=partialRectangle;connectable=0;fillColor=none;top=0;left=0;bottom=0;right=0;align=left;spacingLeft=2;overflow=hidden;fontSize=11;" vertex="1" parent="foUp236TacWjybDignUc-245">
          <mxGeometry x="133" width="72" height="21" as="geometry">
            <mxRectangle width="72" height="21" as="alternateBounds" />
          </mxGeometry>
        </mxCell>
        <mxCell id="foUp236TacWjybDignUc-249" style="shape=tableRow;horizontal=0;startSize=0;swimlaneHead=0;swimlaneBody=0;fillColor=none;collapsible=0;dropTarget=0;points=[[0,0.5],[1,0.5]];portConstraint=eastwest;top=0;left=0;right=0;bottom=0;" vertex="1" parent="foUp236TacWjybDignUc-240">
          <mxGeometry y="67" width="205" height="21" as="geometry" />
        </mxCell>
        <mxCell id="foUp236TacWjybDignUc-250" value="int" style="shape=partialRectangle;connectable=0;fillColor=none;top=0;left=0;bottom=0;right=0;align=left;spacingLeft=2;overflow=hidden;fontSize=11;" vertex="1" parent="foUp236TacWjybDignUc-249">
          <mxGeometry width="36" height="21" as="geometry">
            <mxRectangle width="36" height="21" as="alternateBounds" />
          </mxGeometry>
        </mxCell>
        <mxCell id="foUp236TacWjybDignUc-251" value="Stock_Level" style="shape=partialRectangle;connectable=0;fillColor=none;top=0;left=0;bottom=0;right=0;align=left;spacingLeft=2;overflow=hidden;fontSize=11;" vertex="1" parent="foUp236TacWjybDignUc-249">
          <mxGeometry x="36" width="97" height="21" as="geometry">
            <mxRectangle width="97" height="21" as="alternateBounds" />
          </mxGeometry>
        </mxCell>
        <mxCell id="foUp236TacWjybDignUc-252" value="INTEGER" style="shape=partialRectangle;connectable=0;fillColor=none;top=0;left=0;bottom=0;right=0;align=left;spacingLeft=2;overflow=hidden;fontSize=11;" vertex="1" parent="foUp236TacWjybDignUc-249">
          <mxGeometry x="133" width="72" height="21" as="geometry">
            <mxRectangle width="72" height="21" as="alternateBounds" />
          </mxGeometry>
        </mxCell>
        <mxCell id="foUp236TacWjybDignUc-253" value="Supplier" style="shape=table;startSize=25;container=1;collapsible=0;childLayout=tableLayout;fixedRows=1;rowLines=1;fontStyle=1;align=center;resizeLast=1;" vertex="1" parent="1">
          <mxGeometry x="931" y="291" width="200" height="67" as="geometry" />
        </mxCell>
        <mxCell id="foUp236TacWjybDignUc-254" style="shape=tableRow;horizontal=0;startSize=0;swimlaneHead=0;swimlaneBody=0;fillColor=none;collapsible=0;dropTarget=0;points=[[0,0.5],[1,0.5]];portConstraint=eastwest;top=0;left=0;right=0;bottom=0;" vertex="1" parent="foUp236TacWjybDignUc-253">
          <mxGeometry y="25" width="200" height="21" as="geometry" />
        </mxCell>
        <mxCell id="foUp236TacWjybDignUc-255" value="string" style="shape=partialRectangle;connectable=0;fillColor=none;top=0;left=0;bottom=0;right=0;align=left;spacingLeft=2;overflow=hidden;fontSize=11;" vertex="1" parent="foUp236TacWjybDignUc-254">
          <mxGeometry width="36" height="21" as="geometry">
            <mxRectangle width="36" height="21" as="alternateBounds" />
          </mxGeometry>
        </mxCell>
        <mxCell id="foUp236TacWjybDignUc-256" value="Supplier_ID" style="shape=partialRectangle;connectable=0;fillColor=none;top=0;left=0;bottom=0;right=0;align=left;spacingLeft=2;overflow=hidden;fontSize=11;" vertex="1" parent="foUp236TacWjybDignUc-254">
          <mxGeometry x="36" width="92" height="21" as="geometry">
            <mxRectangle width="92" height="21" as="alternateBounds" />
          </mxGeometry>
        </mxCell>
        <mxCell id="foUp236TacWjybDignUc-257" value="Primary Key" style="shape=partialRectangle;connectable=0;fillColor=none;top=0;left=0;bottom=0;right=0;align=left;spacingLeft=2;overflow=hidden;fontSize=11;" vertex="1" parent="foUp236TacWjybDignUc-254">
          <mxGeometry x="128" width="72" height="21" as="geometry">
            <mxRectangle width="72" height="21" as="alternateBounds" />
          </mxGeometry>
        </mxCell>
        <mxCell id="foUp236TacWjybDignUc-258" style="shape=tableRow;horizontal=0;startSize=0;swimlaneHead=0;swimlaneBody=0;fillColor=none;collapsible=0;dropTarget=0;points=[[0,0.5],[1,0.5]];portConstraint=eastwest;top=0;left=0;right=0;bottom=0;" vertex="1" parent="foUp236TacWjybDignUc-253">
          <mxGeometry y="46" width="200" height="21" as="geometry" />
        </mxCell>
        <mxCell id="foUp236TacWjybDignUc-259" value="string" style="shape=partialRectangle;connectable=0;fillColor=none;top=0;left=0;bottom=0;right=0;align=left;spacingLeft=2;overflow=hidden;fontSize=11;" vertex="1" parent="foUp236TacWjybDignUc-258">
          <mxGeometry width="36" height="21" as="geometry">
            <mxRectangle width="36" height="21" as="alternateBounds" />
          </mxGeometry>
        </mxCell>
        <mxCell id="foUp236TacWjybDignUc-260" value="Contact_Details" style="shape=partialRectangle;connectable=0;fillColor=none;top=0;left=0;bottom=0;right=0;align=left;spacingLeft=2;overflow=hidden;fontSize=11;" vertex="1" parent="foUp236TacWjybDignUc-258">
          <mxGeometry x="36" width="92" height="21" as="geometry">
            <mxRectangle width="92" height="21" as="alternateBounds" />
          </mxGeometry>
        </mxCell>
        <mxCell id="foUp236TacWjybDignUc-261" value="VARCHAR(255)" style="shape=partialRectangle;connectable=0;fillColor=none;top=0;left=0;bottom=0;right=0;align=left;spacingLeft=2;overflow=hidden;fontSize=11;" vertex="1" parent="foUp236TacWjybDignUc-258">
          <mxGeometry x="128" width="72" height="21" as="geometry">
            <mxRectangle width="72" height="21" as="alternateBounds" />
          </mxGeometry>
        </mxCell>
        <mxCell id="foUp236TacWjybDignUc-262" value="Feedback" style="shape=table;startSize=25;container=1;collapsible=0;childLayout=tableLayout;fixedRows=1;rowLines=1;fontStyle=1;align=center;resizeLast=1;" vertex="1" parent="1">
          <mxGeometry x="52" y="31" width="183" height="109" as="geometry" />
        </mxCell>
        <mxCell id="foUp236TacWjybDignUc-263" style="shape=tableRow;horizontal=0;startSize=0;swimlaneHead=0;swimlaneBody=0;fillColor=none;collapsible=0;dropTarget=0;points=[[0,0.5],[1,0.5]];portConstraint=eastwest;top=0;left=0;right=0;bottom=0;" vertex="1" parent="foUp236TacWjybDignUc-262">
          <mxGeometry y="25" width="183" height="21" as="geometry" />
        </mxCell>
        <mxCell id="foUp236TacWjybDignUc-264" value="string" style="shape=partialRectangle;connectable=0;fillColor=none;top=0;left=0;bottom=0;right=0;align=left;spacingLeft=2;overflow=hidden;fontSize=11;" vertex="1" parent="foUp236TacWjybDignUc-263">
          <mxGeometry width="36" height="21" as="geometry">
            <mxRectangle width="36" height="21" as="alternateBounds" />
          </mxGeometry>
        </mxCell>
        <mxCell id="foUp236TacWjybDignUc-265" value="Feedback_ID" style="shape=partialRectangle;connectable=0;fillColor=none;top=0;left=0;bottom=0;right=0;align=left;spacingLeft=2;overflow=hidden;fontSize=11;" vertex="1" parent="foUp236TacWjybDignUc-263">
          <mxGeometry x="36" width="81" height="21" as="geometry">
            <mxRectangle width="81" height="21" as="alternateBounds" />
          </mxGeometry>
        </mxCell>
        <mxCell id="foUp236TacWjybDignUc-266" value="Primary Key" style="shape=partialRectangle;connectable=0;fillColor=none;top=0;left=0;bottom=0;right=0;align=left;spacingLeft=2;overflow=hidden;fontSize=11;" vertex="1" parent="foUp236TacWjybDignUc-263">
          <mxGeometry x="117" width="66" height="21" as="geometry">
            <mxRectangle width="66" height="21" as="alternateBounds" />
          </mxGeometry>
        </mxCell>
        <mxCell id="foUp236TacWjybDignUc-267" style="shape=tableRow;horizontal=0;startSize=0;swimlaneHead=0;swimlaneBody=0;fillColor=none;collapsible=0;dropTarget=0;points=[[0,0.5],[1,0.5]];portConstraint=eastwest;top=0;left=0;right=0;bottom=0;" vertex="1" parent="foUp236TacWjybDignUc-262">
          <mxGeometry y="46" width="183" height="21" as="geometry" />
        </mxCell>
        <mxCell id="foUp236TacWjybDignUc-268" value="string" style="shape=partialRectangle;connectable=0;fillColor=none;top=0;left=0;bottom=0;right=0;align=left;spacingLeft=2;overflow=hidden;fontSize=11;" vertex="1" parent="foUp236TacWjybDignUc-267">
          <mxGeometry width="36" height="21" as="geometry">
            <mxRectangle width="36" height="21" as="alternateBounds" />
          </mxGeometry>
        </mxCell>
        <mxCell id="foUp236TacWjybDignUc-269" value="Comments" style="shape=partialRectangle;connectable=0;fillColor=none;top=0;left=0;bottom=0;right=0;align=left;spacingLeft=2;overflow=hidden;fontSize=11;" vertex="1" parent="foUp236TacWjybDignUc-267">
          <mxGeometry x="36" width="81" height="21" as="geometry">
            <mxRectangle width="81" height="21" as="alternateBounds" />
          </mxGeometry>
        </mxCell>
        <mxCell id="foUp236TacWjybDignUc-270" value="TEXT" style="shape=partialRectangle;connectable=0;fillColor=none;top=0;left=0;bottom=0;right=0;align=left;spacingLeft=2;overflow=hidden;fontSize=11;" vertex="1" parent="foUp236TacWjybDignUc-267">
          <mxGeometry x="117" width="66" height="21" as="geometry">
            <mxRectangle width="66" height="21" as="alternateBounds" />
          </mxGeometry>
        </mxCell>
        <mxCell id="foUp236TacWjybDignUc-271" style="shape=tableRow;horizontal=0;startSize=0;swimlaneHead=0;swimlaneBody=0;fillColor=none;collapsible=0;dropTarget=0;points=[[0,0.5],[1,0.5]];portConstraint=eastwest;top=0;left=0;right=0;bottom=0;" vertex="1" parent="foUp236TacWjybDignUc-262">
          <mxGeometry y="67" width="183" height="21" as="geometry" />
        </mxCell>
        <mxCell id="foUp236TacWjybDignUc-272" value="string" style="shape=partialRectangle;connectable=0;fillColor=none;top=0;left=0;bottom=0;right=0;align=left;spacingLeft=2;overflow=hidden;fontSize=11;" vertex="1" parent="foUp236TacWjybDignUc-271">
          <mxGeometry width="36" height="21" as="geometry">
            <mxRectangle width="36" height="21" as="alternateBounds" />
          </mxGeometry>
        </mxCell>
        <mxCell id="foUp236TacWjybDignUc-273" value="Rating" style="shape=partialRectangle;connectable=0;fillColor=none;top=0;left=0;bottom=0;right=0;align=left;spacingLeft=2;overflow=hidden;fontSize=11;" vertex="1" parent="foUp236TacWjybDignUc-271">
          <mxGeometry x="36" width="81" height="21" as="geometry">
            <mxRectangle width="81" height="21" as="alternateBounds" />
          </mxGeometry>
        </mxCell>
        <mxCell id="foUp236TacWjybDignUc-274" value="VARCHAR(50)" style="shape=partialRectangle;connectable=0;fillColor=none;top=0;left=0;bottom=0;right=0;align=left;spacingLeft=2;overflow=hidden;fontSize=11;" vertex="1" parent="foUp236TacWjybDignUc-271">
          <mxGeometry x="117" width="66" height="21" as="geometry">
            <mxRectangle width="66" height="21" as="alternateBounds" />
          </mxGeometry>
        </mxCell>
        <mxCell id="foUp236TacWjybDignUc-275" style="shape=tableRow;horizontal=0;startSize=0;swimlaneHead=0;swimlaneBody=0;fillColor=none;collapsible=0;dropTarget=0;points=[[0,0.5],[1,0.5]];portConstraint=eastwest;top=0;left=0;right=0;bottom=0;" vertex="1" parent="foUp236TacWjybDignUc-262">
          <mxGeometry y="88" width="183" height="21" as="geometry" />
        </mxCell>
        <mxCell id="foUp236TacWjybDignUc-276" value="string" style="shape=partialRectangle;connectable=0;fillColor=none;top=0;left=0;bottom=0;right=0;align=left;spacingLeft=2;overflow=hidden;fontSize=11;" vertex="1" parent="foUp236TacWjybDignUc-275">
          <mxGeometry width="36" height="21" as="geometry">
            <mxRectangle width="36" height="21" as="alternateBounds" />
          </mxGeometry>
        </mxCell>
        <mxCell id="foUp236TacWjybDignUc-277" value="Guest_ID" style="shape=partialRectangle;connectable=0;fillColor=none;top=0;left=0;bottom=0;right=0;align=left;spacingLeft=2;overflow=hidden;fontSize=11;" vertex="1" parent="foUp236TacWjybDignUc-275">
          <mxGeometry x="36" width="81" height="21" as="geometry">
            <mxRectangle width="81" height="21" as="alternateBounds" />
          </mxGeometry>
        </mxCell>
        <mxCell id="foUp236TacWjybDignUc-278" value="Foreign Key" style="shape=partialRectangle;connectable=0;fillColor=none;top=0;left=0;bottom=0;right=0;align=left;spacingLeft=2;overflow=hidden;fontSize=11;" vertex="1" parent="foUp236TacWjybDignUc-275">
          <mxGeometry x="117" width="66" height="21" as="geometry">
            <mxRectangle width="66" height="21" as="alternateBounds" />
          </mxGeometry>
        </mxCell>
        <mxCell id="foUp236TacWjybDignUc-279" value="Payment" style="shape=table;startSize=25;container=1;collapsible=0;childLayout=tableLayout;fixedRows=1;rowLines=1;fontStyle=1;align=center;resizeLast=1;" vertex="1" parent="1">
          <mxGeometry x="333" y="749" width="198" height="109" as="geometry" />
        </mxCell>
        <mxCell id="foUp236TacWjybDignUc-280" style="shape=tableRow;horizontal=0;startSize=0;swimlaneHead=0;swimlaneBody=0;fillColor=none;collapsible=0;dropTarget=0;points=[[0,0.5],[1,0.5]];portConstraint=eastwest;top=0;left=0;right=0;bottom=0;" vertex="1" parent="foUp236TacWjybDignUc-279">
          <mxGeometry y="25" width="198" height="21" as="geometry" />
        </mxCell>
        <mxCell id="foUp236TacWjybDignUc-281" value="string" style="shape=partialRectangle;connectable=0;fillColor=none;top=0;left=0;bottom=0;right=0;align=left;spacingLeft=2;overflow=hidden;fontSize=11;" vertex="1" parent="foUp236TacWjybDignUc-280">
          <mxGeometry width="36" height="21" as="geometry">
            <mxRectangle width="36" height="21" as="alternateBounds" />
          </mxGeometry>
        </mxCell>
        <mxCell id="foUp236TacWjybDignUc-282" value="Payment_ID" style="shape=partialRectangle;connectable=0;fillColor=none;top=0;left=0;bottom=0;right=0;align=left;spacingLeft=2;overflow=hidden;fontSize=11;" vertex="1" parent="foUp236TacWjybDignUc-280">
          <mxGeometry x="36" width="90" height="21" as="geometry">
            <mxRectangle width="90" height="21" as="alternateBounds" />
          </mxGeometry>
        </mxCell>
        <mxCell id="foUp236TacWjybDignUc-283" value="Primary Key" style="shape=partialRectangle;connectable=0;fillColor=none;top=0;left=0;bottom=0;right=0;align=left;spacingLeft=2;overflow=hidden;fontSize=11;" vertex="1" parent="foUp236TacWjybDignUc-280">
          <mxGeometry x="126" width="72" height="21" as="geometry">
            <mxRectangle width="72" height="21" as="alternateBounds" />
          </mxGeometry>
        </mxCell>
        <mxCell id="foUp236TacWjybDignUc-284" style="shape=tableRow;horizontal=0;startSize=0;swimlaneHead=0;swimlaneBody=0;fillColor=none;collapsible=0;dropTarget=0;points=[[0,0.5],[1,0.5]];portConstraint=eastwest;top=0;left=0;right=0;bottom=0;" vertex="1" parent="foUp236TacWjybDignUc-279">
          <mxGeometry y="46" width="198" height="21" as="geometry" />
        </mxCell>
        <mxCell id="foUp236TacWjybDignUc-285" value="string" style="shape=partialRectangle;connectable=0;fillColor=none;top=0;left=0;bottom=0;right=0;align=left;spacingLeft=2;overflow=hidden;fontSize=11;" vertex="1" parent="foUp236TacWjybDignUc-284">
          <mxGeometry width="36" height="21" as="geometry">
            <mxRectangle width="36" height="21" as="alternateBounds" />
          </mxGeometry>
        </mxCell>
        <mxCell id="foUp236TacWjybDignUc-286" value="Reservation_ID" style="shape=partialRectangle;connectable=0;fillColor=none;top=0;left=0;bottom=0;right=0;align=left;spacingLeft=2;overflow=hidden;fontSize=11;" vertex="1" parent="foUp236TacWjybDignUc-284">
          <mxGeometry x="36" width="90" height="21" as="geometry">
            <mxRectangle width="90" height="21" as="alternateBounds" />
          </mxGeometry>
        </mxCell>
        <mxCell id="foUp236TacWjybDignUc-287" value="Foreign Key" style="shape=partialRectangle;connectable=0;fillColor=none;top=0;left=0;bottom=0;right=0;align=left;spacingLeft=2;overflow=hidden;fontSize=11;" vertex="1" parent="foUp236TacWjybDignUc-284">
          <mxGeometry x="126" width="72" height="21" as="geometry">
            <mxRectangle width="72" height="21" as="alternateBounds" />
          </mxGeometry>
        </mxCell>
        <mxCell id="foUp236TacWjybDignUc-288" style="shape=tableRow;horizontal=0;startSize=0;swimlaneHead=0;swimlaneBody=0;fillColor=none;collapsible=0;dropTarget=0;points=[[0,0.5],[1,0.5]];portConstraint=eastwest;top=0;left=0;right=0;bottom=0;" vertex="1" parent="foUp236TacWjybDignUc-279">
          <mxGeometry y="67" width="198" height="21" as="geometry" />
        </mxCell>
        <mxCell id="foUp236TacWjybDignUc-289" value="string" style="shape=partialRectangle;connectable=0;fillColor=none;top=0;left=0;bottom=0;right=0;align=left;spacingLeft=2;overflow=hidden;fontSize=11;" vertex="1" parent="foUp236TacWjybDignUc-288">
          <mxGeometry width="36" height="21" as="geometry">
            <mxRectangle width="36" height="21" as="alternateBounds" />
          </mxGeometry>
        </mxCell>
        <mxCell id="foUp236TacWjybDignUc-290" value="Amount" style="shape=partialRectangle;connectable=0;fillColor=none;top=0;left=0;bottom=0;right=0;align=left;spacingLeft=2;overflow=hidden;fontSize=11;" vertex="1" parent="foUp236TacWjybDignUc-288">
          <mxGeometry x="36" width="90" height="21" as="geometry">
            <mxRectangle width="90" height="21" as="alternateBounds" />
          </mxGeometry>
        </mxCell>
        <mxCell id="foUp236TacWjybDignUc-291" value="VARCHAR(100)" style="shape=partialRectangle;connectable=0;fillColor=none;top=0;left=0;bottom=0;right=0;align=left;spacingLeft=2;overflow=hidden;fontSize=11;" vertex="1" parent="foUp236TacWjybDignUc-288">
          <mxGeometry x="126" width="72" height="21" as="geometry">
            <mxRectangle width="72" height="21" as="alternateBounds" />
          </mxGeometry>
        </mxCell>
        <mxCell id="foUp236TacWjybDignUc-292" style="shape=tableRow;horizontal=0;startSize=0;swimlaneHead=0;swimlaneBody=0;fillColor=none;collapsible=0;dropTarget=0;points=[[0,0.5],[1,0.5]];portConstraint=eastwest;top=0;left=0;right=0;bottom=0;" vertex="1" parent="foUp236TacWjybDignUc-279">
          <mxGeometry y="88" width="198" height="21" as="geometry" />
        </mxCell>
        <mxCell id="foUp236TacWjybDignUc-293" value="string" style="shape=partialRectangle;connectable=0;fillColor=none;top=0;left=0;bottom=0;right=0;align=left;spacingLeft=2;overflow=hidden;fontSize=11;" vertex="1" parent="foUp236TacWjybDignUc-292">
          <mxGeometry width="36" height="21" as="geometry">
            <mxRectangle width="36" height="21" as="alternateBounds" />
          </mxGeometry>
        </mxCell>
        <mxCell id="foUp236TacWjybDignUc-294" value="Method" style="shape=partialRectangle;connectable=0;fillColor=none;top=0;left=0;bottom=0;right=0;align=left;spacingLeft=2;overflow=hidden;fontSize=11;" vertex="1" parent="foUp236TacWjybDignUc-292">
          <mxGeometry x="36" width="90" height="21" as="geometry">
            <mxRectangle width="90" height="21" as="alternateBounds" />
          </mxGeometry>
        </mxCell>
        <mxCell id="foUp236TacWjybDignUc-295" value="VARCHAR(50)" style="shape=partialRectangle;connectable=0;fillColor=none;top=0;left=0;bottom=0;right=0;align=left;spacingLeft=2;overflow=hidden;fontSize=11;" vertex="1" parent="foUp236TacWjybDignUc-292">
          <mxGeometry x="126" width="72" height="21" as="geometry">
            <mxRectangle width="72" height="21" as="alternateBounds" />
          </mxGeometry>
        </mxCell>
        <mxCell id="foUp236TacWjybDignUc-296" value="makes" style="curved=1;startArrow=ERmandOne;startSize=10;;endArrow=ERmany;endSize=10;;exitX=0.37057319520011783;exitY=1;entryX=0.35897354852585567;entryY=0;rounded=0;" edge="1" parent="1" source="foUp236TacWjybDignUc-134" target="foUp236TacWjybDignUc-159">
          <mxGeometry relative="1" as="geometry">
            <Array as="points">
              <mxPoint x="93" y="449" />
            </Array>
          </mxGeometry>
        </mxCell>
        <mxCell id="foUp236TacWjybDignUc-297" value="allocated to" style="curved=1;startArrow=ERmandOne;startSize=10;;endArrow=ERmany;endSize=10;;exitX=0.6463665758442675;exitY=0;entryX=0.6446878342401414;entryY=1;rounded=0;" edge="1" parent="1" source="foUp236TacWjybDignUc-184" target="foUp236TacWjybDignUc-159">
          <mxGeometry relative="1" as="geometry">
            <Array as="points">
              <mxPoint x="193" y="699" />
            </Array>
          </mxGeometry>
        </mxCell>
        <mxCell id="foUp236TacWjybDignUc-298" value="booked by" style="curved=1;startArrow=ERmandOne;startSize=10;;endArrow=ERmandOne;endSize=10;;exitX=0.6446878342401414;exitY=0;entryX=0.6086684332953559;entryY=1;rounded=0;" edge="1" parent="1" source="foUp236TacWjybDignUc-159" target="foUp236TacWjybDignUc-134">
          <mxGeometry relative="1" as="geometry">
            <Array as="points">
              <mxPoint x="193" y="449" />
            </Array>
          </mxGeometry>
        </mxCell>
        <mxCell id="foUp236TacWjybDignUc-299" value="includes" style="curved=1;startArrow=ERmandOne;startSize=10;;endArrow=ERmandOne;endSize=10;;exitX=0.35897354852585567;exitY=1;entryX=0.3579050373827291;entryY=0;rounded=0;" edge="1" parent="1" source="foUp236TacWjybDignUc-159" target="foUp236TacWjybDignUc-184">
          <mxGeometry relative="1" as="geometry">
            <Array as="points">
              <mxPoint x="93" y="699" />
            </Array>
          </mxGeometry>
        </mxCell>
        <mxCell id="foUp236TacWjybDignUc-300" value="assigned" style="curved=1;startArrow=ERmandOne;startSize=10;;endArrow=ERmany;endSize=10;;exitX=-0.0012486648559570312;exitY=0.9686771365941028;entryX=0.498871787300323;entryY=0;rounded=0;" edge="1" parent="1" source="foUp236TacWjybDignUc-201" target="foUp236TacWjybDignUc-222">
          <mxGeometry relative="1" as="geometry">
            <Array as="points">
              <mxPoint x="456" y="199" />
            </Array>
          </mxGeometry>
        </mxCell>
        <mxCell id="foUp236TacWjybDignUc-301" value="performs" style="curved=1;startArrow=ERmandOne;startSize=10;;endArrow=ERmany;endSize=10;;exitX=0.7513033308004186;exitY=1;entryX=0.49919759228242844;entryY=0;rounded=0;" edge="1" parent="1" source="foUp236TacWjybDignUc-201" target="foUp236TacWjybDignUc-231">
          <mxGeometry relative="1" as="geometry">
            <Array as="points">
              <mxPoint x="735" y="199" />
            </Array>
          </mxGeometry>
        </mxCell>
        <mxCell id="foUp236TacWjybDignUc-302" value="ordered from" style="curved=1;startArrow=ERmandOne;startSize=10;;endArrow=ERmandOne;endSize=10;;exitX=0.4989953576064691;exitY=1;entryX=0.5014702415466309;entryY=0;rounded=0;" edge="1" parent="1" source="foUp236TacWjybDignUc-240" target="foUp236TacWjybDignUc-253">
          <mxGeometry relative="1" as="geometry">
            <Array as="points" />
          </mxGeometry>
        </mxCell>
        <mxCell id="foUp236TacWjybDignUc-303" value="provided by" style="curved=1;startArrow=ERmandOne;startSize=10;;endArrow=ERmany;endSize=10;;exitX=0.4993685529531677;exitY=0.9953703703703703;entryX=0.48962081424773685;entryY=0;rounded=0;" edge="1" parent="1" source="foUp236TacWjybDignUc-262" target="foUp236TacWjybDignUc-134">
          <mxGeometry relative="1" as="geometry">
            <Array as="points" />
          </mxGeometry>
        </mxCell>
        <mxCell id="foUp236TacWjybDignUc-304" value="generates" style="curved=1;startArrow=ERmandOne;startSize=10;;endArrow=ERmany;endSize=10;;exitX=1.002341570172991;exitY=0.8029378401552928;entryX=0.5026146474510732;entryY=0;rounded=0;" edge="1" parent="1" source="foUp236TacWjybDignUc-159" target="foUp236TacWjybDignUc-279">
          <mxGeometry relative="1" as="geometry">
            <Array as="points">
              <mxPoint x="433" y="699" />
            </Array>
          </mxGeometry>
        </mxCell>
      </root>
    </mxGraphModel>
  </diagram>
</mxfile>
